# xmcd CD database file
#
# Track frame offsets:
#	150
#	21374
#	43098
#	58394
#	82874
#	104321
#	131210
#	148118
#	166513
#	183269
#	204568
#
# Disc length: 2901 seconds
#
# Revision: 2
# Processed by: cddbd v1.5.2PL0 Copyright (c) Steve Scherf et al.
# Submitted via: CDex 1.51
#
DISCID=980b530b
DTITLE=James Nihan - Murals
DYEAR=2008
DGENRE=New Age
TTITLE0=Three Petals
TTITLE1=Hovenweep
TTITLE2=Love Is Not a Verb
TTITLE3=Mariposa
TTITLE4=Mystic Maiden
TTITLE5=Jaguar Mural
TTITLE6=Piney River (I Am One)
TTITLE7=Stories
TTITLE8=That's Life
TTITLE9=Song of the Crone
TTITLE10=The Pools of Tepantitla
EXTD=YEAR: 2008
EXTT0=
EXTT1=
EXTT2=
EXTT3=
EXTT4=
EXTT5=
EXTT6=
EXTT7=
EXTT8=
EXTT9=
EXTT10=
PLAYORDER=
